<?xml version="1.0" encoding="UTF-8" standalone="no"?>
<!-- Created with Inkscape (http://www.inkscape.org/) -->

<svg
   xmlns:dc="http://purl.org/dc/elements/1.1/"
   xmlns:cc="http://creativecommons.org/ns#"
   xmlns:rdf="http://www.w3.org/1999/02/22-rdf-syntax-ns#"
   xmlns:svg="http://www.w3.org/2000/svg"
   xmlns="http://www.w3.org/2000/svg"
   xmlns:sodipodi="http://sodipodi.sourceforge.net/DTD/sodipodi-0.dtd"
   xmlns:inkscape="http://www.inkscape.org/namespaces/inkscape"
   width="1500"
   height="1052.3622"
   id="svg3964"
   version="1.1"
   inkscape:version="0.48.3.1 r9886"
   sodipodi:docname="New document 5">
  <sodipodi:namedview
     id="base"
     pagecolor="#ffffff"
     bordercolor="#666666"
     borderopacity="1.0"
     inkscape:pageopacity="0.0"
     inkscape:pageshadow="2"
     inkscape:zoom="0.35"
     inkscape:cx="375"
     inkscape:cy="520"
     inkscape:document-units="px"
     inkscape:current-layer="layer1"
     showgrid="false"
     inkscape:window-width="1024"
     inkscape:window-height="550"
     inkscape:window-x="0"
     inkscape:window-y="0"
     inkscape:window-maximized="1" />
  <defs
     id="defs3966" />
  <metadata
     id="metadata3969">
    <rdf:RDF>
      <cc:Work
         rdf:about="">
        <dc:format>image/svg+xml</dc:format>
        <dc:type
           rdf:resource="http://purl.org/dc/dcmitype/StillImage" />
        <dc:title></dc:title>
      </cc:Work>
    </rdf:RDF>
  </metadata>
  <g
     id="layer1"
     inkscape:groupmode="layer"
     inkscape:label="Layer 1">
    <path
       id="path3979"
       title="exp(-x*x)"
       d="m 259.14286,576.07647 c 1.88532,0 3.77065,0 5.65597,0 1.88533,0 3.77065,0 5.65598,0 1.88532,0 3.77065,0 5.65598,0 1.88532,0 3.77065,0 5.65597,0 1.88533,0 3.77065,0 5.65598,0 1.88532,0 3.77065,0 5.65597,0 1.88533,0 3.77066,0 5.65598,0 1.88533,0 3.77065,0 5.65598,0 1.88532,0 3.77065,0 5.65598,0 1.88532,0 3.77065,0 5.65598,0 1.88532,0 3.77065,0 5.65597,0 1.88533,0 3.77065,0 5.65598,0 1.88532,0 3.77065,0 5.65597,0 1.88533,0 3.77066,0 5.65598,0 1.88533,0 3.77065,0 5.65598,0 1.88532,0 3.77065,0 5.65597,0 1.88533,0 3.77066,0 5.65598,0 1.88533,0 3.77065,0 5.65598,0 1.88532,0 3.77065,0 5.65597,0 1.88533,0 3.77066,0 5.65598,0 1.88533,0 3.77065,0 5.65598,0 1.88532,0 3.77065,0 5.65597,0 1.88533,0 3.77065,0 5.65598,0 1.88533,0 3.77065,0 5.65598,0 1.88532,0 3.77065,0 5.65597,0 1.88533,0 3.77065,0 5.65598,0 1.88533,0 3.77065,0 5.65598,-4e-5 1.88532,-4e-5 3.77065,2e-5 5.65597,-7.9e-4 1.88533,-8.1e-4 3.77065,-10e-4 5.65598,-0.0122 1.88532,-0.0112 3.77065,-0.0236 5.65598,-0.13276 1.88532,-0.10918 3.77065,-0.2776 5.65597,-1.02401 1.88533,-0.7464 3.77065,-2.01064 5.65598,-5.55696 1.88532,-3.54632 3.77065,-9.45397 5.65598,-20.99366 1.88532,-11.53968 3.77065,-29.14644 5.65597,-54.14291 1.88533,-24.99646 3.77065,-57.71382 5.65598,-91.38719 1.88532,-33.67337 3.77065,-67.60784 5.65598,-89.50704 1.88532,-21.89919 3.77065,-30.73879 5.65597,-22.82478 1.88533,7.91401 3.77065,32.27249 5.65598,63.14743 1.88532,30.87494 3.77065,67.24728 5.65597,98.27825 1.88533,31.03097 3.77066,56.56038 5.65598,74.4937 1.88533,17.93332 3.77065,28.7031 5.65598,35.42687 1.88532,6.72376 3.77065,9.60508 5.65597,11.31163 1.88533,1.70655 3.77066,2.1948 5.65598,2.49393 1.88533,0.29914 3.77065,0.34849 5.65598,0.3851 1.88532,0.0366 3.77065,0.0388 5.65597,0.042 1.88533,0.003 3.77065,0.003 5.65598,0.003 1.88533,2e-4 3.77065,1.7e-4 5.65598,1.8e-4 1.88532,10e-6 3.77065,10e-6 5.65597,10e-6 1.88533,0 3.77065,0 5.65598,0"
       style="fill:none;stroke:#000000;stroke-opacity:1"
       inkscape:connector-curvature="0" />
    <path
       inkscape:connector-curvature="0"
       id="path3979-7"
       title="exp(-x*x)"
       d="m 530.00001,576.58058 c 1.88532,0 3.77064,0 5.65597,0 1.88532,0 3.77065,0 5.65598,0 1.88532,0 3.77065,0 5.65597,0 1.88533,0 3.77065,0 5.65598,0 1.88532,0 3.77065,0 5.65598,0 1.88532,0 3.77065,0 5.65597,0 1.88533,0 3.77065,0 5.65598,0 1.88532,0 3.77065,0 5.65597,0 1.88533,0 3.77065,0 5.65598,0 1.88532,0 3.77065,0 5.65598,0 1.88532,0 3.77065,0 5.65597,0 1.88533,0 3.77065,0 5.65598,0 1.88532,0 3.77065,0 5.65597,0 1.88533,0 3.77066,0 5.65598,0 1.88533,0 3.77065,0 5.65598,0 1.88532,0 3.77065,0 5.65597,0 1.88533,0 3.77066,0 5.65598,0 1.88533,0 3.77065,0 5.65598,0 1.88532,0 3.77065,0 5.65597,0 1.88533,0 3.77066,0 5.65598,0 1.88533,0 3.77065,0 5.65598,0 1.88532,0 3.77065,0 5.65597,0 1.88533,0 3.77065,0 5.65598,0 1.88533,0 3.77065,0 5.65598,0 1.88532,0 3.77065,0 5.65597,0 1.88533,0 3.77065,0 5.65598,0 1.88533,0 3.77065,0 5.65598,-4e-5 1.88532,-4e-5 3.77065,2e-5 5.65597,-7.9e-4 1.88533,-8.1e-4 3.77065,-10e-4 5.65598,-0.0122 1.88532,-0.0112 3.77065,-0.0236 5.65598,-0.13276 1.88532,-0.10918 3.77065,-0.2776 5.65597,-1.02401 1.88533,-0.7464 3.77065,-2.01064 5.65598,-5.55696 1.88532,-3.54632 3.77065,-9.45397 5.65598,-20.99366 1.88532,-11.53968 3.77065,-29.14644 5.65597,-54.14291 1.88533,-24.99646 3.77065,-57.71382 5.65598,-91.38719 1.88532,-33.67337 3.77065,-67.60784 5.65598,-89.50704 1.88532,-21.89919 3.77065,-30.73879 5.65597,-22.82478 1.88533,7.91401 3.77065,32.27249 5.65598,63.14743 1.88532,30.87494 3.77065,67.24728 5.65597,98.27825 1.88533,31.03097 3.77066,56.56038 5.65598,74.4937 1.88533,17.93332 3.77065,28.7031 5.65598,35.42687 1.88532,6.72376 3.77065,9.60508 5.65597,11.31163 1.88533,1.70655 3.77066,2.1948 5.65598,2.49393 1.88533,0.29914 3.77065,0.34849 5.65598,0.3851 1.88532,0.0366 3.77065,0.0388 5.65597,0.042 1.88533,0.003 3.77065,0.003 5.65598,0.003 1.88533,2e-4 3.77065,1.7e-4 5.65598,1.8e-4 1.88532,10e-6 3.77065,10e-6 5.65597,10e-6 1.88533,0 3.77065,0 5.65598,0"
       style="fill:none;stroke:#000000;stroke-opacity:1" />
    <path
       inkscape:connector-curvature="0"
       id="path3979-3"
       title="exp(-x*x)"
       d="m 795.71429,576.58059 c 1.88532,0 3.77065,0 5.65597,0 1.88533,0 3.77065,0 5.65598,0 1.88533,0 3.77065,0 5.65598,0 1.88532,0 3.77065,0 5.65597,0 1.88533,0 3.77065,0 5.65598,0 1.88532,0 3.77065,0 5.65598,0 1.88532,0 3.77065,0 5.65597,0 1.88533,0 3.77065,0 5.65598,0 1.88532,0 3.77065,0 5.65598,0 1.88532,0 3.77065,0 5.65598,0 1.88532,0 3.77065,0 5.65597,0 1.88533,0 3.77065,0 5.65598,0 1.88532,0 3.77065,0 5.65597,0 1.88533,0 3.77066,0 5.65598,0 1.88533,0 3.77065,0 5.65598,0 1.88532,0 3.77065,0 5.65597,0 1.88533,0 3.77066,0 5.65598,0 1.88533,0 3.77065,0 5.65598,0 1.88532,0 3.77065,0 5.65597,0 1.88533,0 3.77066,0 5.65598,0 1.88533,0 3.77065,0 5.65598,0 1.88532,0 3.77065,0 5.65597,0 1.88533,0 3.77065,0 5.65598,0 1.88533,0 3.77065,0 5.65598,0 1.88532,0 3.77065,0 5.65597,0 1.88533,0 3.77065,0 5.65598,0 1.88533,0 3.77065,0 5.65598,-4e-5 1.88532,-4e-5 3.77065,2e-5 5.65597,-7.9e-4 1.88533,-8.1e-4 3.77065,-10e-4 5.65598,-0.0122 1.88532,-0.0112 3.77065,-0.0236 5.65598,-0.13276 1.88532,-0.10918 3.77065,-0.2776 5.65597,-1.02401 1.88533,-0.7464 3.77065,-2.01064 5.65598,-5.55696 1.88532,-3.54632 3.77065,-9.45397 5.65598,-20.99366 1.88532,-11.53968 3.77065,-29.14644 5.65597,-54.14291 1.88533,-24.99646 3.77065,-57.71382 5.65598,-91.38719 1.88532,-33.67337 3.77065,-67.60784 5.65598,-89.50704 1.88535,-21.89919 3.77065,-30.73879 5.65595,-22.82478 1.8854,7.91401 3.7707,32.27249 5.656,63.14743 1.8853,30.87494 3.7707,67.24728 5.656,98.27825 1.8853,31.03097 3.7706,56.56038 5.656,74.4937 1.8853,17.93332 3.7706,28.7031 5.6559,35.42687 1.8854,6.72376 3.7707,9.60508 5.656,11.31163 1.8853,1.70655 3.7707,2.1948 5.656,2.49393 1.8853,0.29914 3.7706,0.34849 5.656,0.3851 1.8853,0.0366 3.7706,0.0388 5.6559,0.042 1.8854,0.003 3.7707,0.003 5.656,0.003 1.8853,2e-4 3.7707,1.7e-4 5.656,1.8e-4 1.8853,10e-6 3.7706,10e-6 5.656,10e-6 1.8853,0 3.7706,0 5.6559,0"
       style="fill:none;stroke:#000000;stroke-opacity:1" />
    <rect
       style="fill:none;stroke:#000000;stroke-opacity:1"
       id="rect4010"
       width="874.28571"
       height="345.71429"
       x="211.42857"
       y="255.21933" />
    <path
       style="fill:none;stroke:#000000;stroke-width:1px;stroke-linecap:butt;stroke-linejoin:miter;stroke-opacity:1"
       d="m 808.57143,598.07647 c 0,-345.71429 0,-345.71429 0,-345.71429"
       id="path4012"
       inkscape:connector-curvature="0" />
    <path
       style="fill:none;stroke:#000000;stroke-width:1px;stroke-linecap:butt;stroke-linejoin:miter;stroke-opacity:1"
       d="m 537.14286,255.21933 0,340 8.71153,2.33424"
       id="path4014"
       inkscape:connector-curvature="0" />
  </g>
</svg>
