<?xml version="1.0" encoding="UTF-8" standalone="no"?>
<!-- Created with Inkscape (http://www.inkscape.org/) -->

<svg
   xmlns:dc="http://purl.org/dc/elements/1.1/"
   xmlns:cc="http://creativecommons.org/ns#"
   xmlns:rdf="http://www.w3.org/1999/02/22-rdf-syntax-ns#"
   xmlns:svg="http://www.w3.org/2000/svg"
   xmlns="http://www.w3.org/2000/svg"
   xmlns:sodipodi="http://sodipodi.sourceforge.net/DTD/sodipodi-0.dtd"
   xmlns:inkscape="http://www.inkscape.org/namespaces/inkscape"
   sodipodi:docname="New document 1"
   inkscape:version="0.48.3.1 r9886"
   version="1.1"
   id="svg2"
   height="1052.3622047"
   width="744.09448819">
  <sodipodi:namedview
     id="base"
     pagecolor="#ffffff"
     bordercolor="#666666"
     borderopacity="1.0"
     inkscape:pageopacity="0.0"
     inkscape:pageshadow="2"
     inkscape:zoom="0.35"
     inkscape:cx="375"
     inkscape:cy="520"
     inkscape:document-units="px"
     inkscape:current-layer="layer1"
     showgrid="false"
     inkscape:window-width="1024"
     inkscape:window-height="550"
     inkscape:window-x="0"
     inkscape:window-y="0"
     inkscape:window-maximized="1" />
  <defs
     id="defs4" />
  <metadata
     id="metadata7">
    <rdf:RDF>
      <cc:Work
         rdf:about="">
        <dc:format>image/svg+xml</dc:format>
        <dc:type
           rdf:resource="http://purl.org/dc/dcmitype/StillImage" />
        <dc:title></dc:title>
      </cc:Work>
    </rdf:RDF>
  </metadata>
  <g
     id="layer1"
     inkscape:groupmode="layer"
     inkscape:label="Layer 1">
    <rect
       y="343.88376"
       x="71.521614"
       height="356.95679"
       width="562.67108"
       id="rect3805"
       style="fill:none;stroke:#000000;stroke-width:1.18606436;stroke-opacity:1" />
    <path
       inkscape:connector-curvature="0"
       id="path3807"
       d="m 480.73692,343.88378 0,353.58928"
       style="fill:none;stroke:#000000;stroke-width:1.18606436px;stroke-linecap:butt;stroke-linejoin:miter;stroke-opacity:1" />
    <path
       style="fill:none;stroke:#000000;stroke-width:1.31780291;stroke-opacity:1"
       d="m 171.42857,689.50505 c 3.47911,0 6.95822,0 10.43732,0 3.47911,0 6.95821,0 10.43732,0 3.47911,0 6.95821,0 10.43732,0 3.4791,0 6.95821,0 10.43731,0 3.47911,0 6.95822,0 10.43732,0 3.47911,0 6.95821,0 10.43732,0 3.47911,0 6.95821,0 10.43732,0 3.4791,0 6.95821,0 10.43731,0 3.47911,0 6.95822,0 10.43732,0 3.47911,0 6.95821,0 10.43732,0 3.47911,0 6.95821,0 10.43732,0 3.4791,0 6.95821,0 10.43731,0 3.47911,0 6.95822,0 10.43732,0 3.47911,0 6.95821,0 10.43732,0 3.47911,0 6.95821,0 10.43732,0 3.4791,0 6.95821,0 10.43732,0 3.4791,0 6.95821,0 10.43731,0 3.47911,0 6.95821,0 10.43732,0 3.47911,0 6.95821,0 10.43732,0 3.4791,0 6.95821,0 10.43732,0 3.4791,0 6.95821,0 10.43731,0 3.47911,0 6.95821,0 10.43732,0 3.47911,0 6.95821,0 10.43732,0 3.4791,0 6.95821,0 10.43732,0 3.4791,0 6.95821,0 10.43731,0 3.47911,0 6.95821,0 10.43732,0 3.47911,-2e-5 6.95821,0 10.43732,-5e-5 3.4791,-4e-5 6.95821,2e-5 10.43732,-8.7e-4 3.4791,-8.9e-4 6.95821,-10e-4 10.43731,-0.0139 3.47911,-0.0122 6.95821,-0.0259 10.43732,-0.14605 3.47911,-0.12017 6.95821,-0.30549 10.43732,-1.12683 3.4791,-0.82136 6.95821,-2.21258 10.43732,-6.11502 3.4791,-3.90245 6.95821,-10.40336 10.43731,-23.10189 3.47911,-12.69854 6.95822,-32.07342 10.43732,-59.58009 3.47911,-27.50667 6.95821,-63.50961 10.43732,-100.56454 3.4791,-37.05494 6.95821,-74.3972 10.43732,-98.49556 3.4791,-24.09837 6.95821,-33.82567 10.43731,-25.11691 3.47911,8.70874 6.95822,35.51337 10.43732,69.48886 3.47911,33.97549 6.95821,74.00043 10.43732,108.1476 3.4791,34.14718 6.95821,62.24032 10.43732,81.97456 3.4791,19.73423 6.95821,31.58555 10.43731,38.98453 3.47911,7.39897 6.95822,10.56965 10.43732,12.44758 3.47911,1.87793 6.95821,2.4152 10.43732,2.74437 3.4791,0.32918 6.95821,0.38348 10.43732,0.42379 3.4791,0.0403 6.95821,0.0427 10.43731,0.0462 3.47911,0.003 6.95822,0.003 10.43732,0.003 3.47911,2.1e-4 6.95821,1.9e-4 10.43732,1.9e-4 3.47911,2e-5 6.95821,2e-5 10.43732,2e-5 3.4791,0 6.95821,0 10.43731,0"
       title="exp(-x*x)"
       id="path3892"
       inkscape:connector-curvature="0" />
    <text
       xml:space="preserve"
       style="font-size:40px;font-style:normal;font-weight:normal;line-height:125%;letter-spacing:0px;word-spacing:0px;fill:#000000;fill-opacity:1;stroke:none;font-family:Sans;-inkscape-font-specification:Sans;font-stretch:normal;font-variant:normal;text-anchor:start;text-align:start;writing-mode:lr"
       x="525.71429"
       y="306.64792"
       id="text3914"
       sodipodi:linespacing="125%"><tspan
         sodipodi:role="line"
         id="tspan3924">Δt1</tspan></text>
    <text
       xml:space="preserve"
       style="font-size:40px;font-style:normal;font-weight:normal;line-height:125%;letter-spacing:0px;word-spacing:0px;fill:#000000;fill-opacity:1;stroke:none;font-family:Sans;-inkscape-font-specification:Sans;font-stretch:normal;font-variant:normal;text-anchor:start;text-align:start;writing-mode:lr"
       x="240.00002"
       y="309.50504"
       id="text3918"
       sodipodi:linespacing="125%"><tspan
         sodipodi:role="line"
         id="tspan3922">Δt2</tspan></text>
  </g>
</svg>
